<svg width="44px" height="48px" viewBox="0 0 44 48" version="1.1" xmlns="http://www.w3.org/2000/svg" xmlns:xlink="http://www.w3.org/1999/xlink">
    <!-- Generator: Sketch 48.2 (47327) - http://www.bohemiancoding.com/sketch -->
    <desc>Created with Sketch.</desc>
    <defs></defs>
    <g id="Page-1" stroke="none" stroke-width="1" fill="none" fill-rule="evenodd">
        <g id="Group" fill-rule="nonzero">
            <g id="square-pin">
                <polygon id="Shape" fill="#FF613D" points="44 0 0 0 0 43 16 43 22 48 28 43 44 43"></polygon>
                <g id="health" transform="translate(11.000000, 10.000000)" fill="#FFFFFF">
                    <path d="M23,7.66666667 C23,7.403125 22.784375,7.1875 22.5208333,7.1875 L16.2916667,7.1875 C16.028125,7.1875 15.8125,6.971875 15.8125,6.70833333 L15.8125,0.479166667 C15.8125,0.215625 15.596875,0 15.3333333,0 L7.66666667,0 C7.403125,0 7.1875,0.215625 7.1875,0.479166667 L7.1875,6.70833333 C7.1875,6.971875 6.971875,7.1875 6.70833333,7.1875 L0.479166667,7.1875 C0.215625,7.1875 0,7.403125 0,7.66666667 L0,15.3333333 C0,15.596875 0.215625,15.8125 0.479166667,15.8125 L6.70833333,15.8125 C6.971875,15.8125 7.1875,16.028125 7.1875,16.2916667 L7.1875,22.5208333 C7.1875,22.784375 7.403125,23 7.66666667,23 L15.3333333,23 C15.596875,23 15.8125,22.784375 15.8125,22.5208333 L15.8125,16.2916667 C15.8125,16.028125 16.028125,15.8125 16.2916667,15.8125 L22.5208333,15.8125 C22.784375,15.8125 23,15.596875 23,15.3333333 L23,7.66666667 Z" id="Shape"></path>
                </g>
            </g>
        </g>
    </g>
</svg>
