<svg width="44px" height="48px" viewBox="0 0 44 48" version="1.1" xmlns="http://www.w3.org/2000/svg" xmlns:xlink="http://www.w3.org/1999/xlink">
    <!-- Generator: Sketch 48.2 (47327) - http://www.bohemiancoding.com/sketch -->
    <desc>Created with Sketch.</desc>
    <defs></defs>
    <g id="Page-1" stroke="none" stroke-width="1" fill="none" fill-rule="evenodd">
        <g id="Group" fill-rule="nonzero">
            <g id="square-pin">
                <polygon id="Shape" fill="#4AE2C1" points="44 0 0 0 0 43 16 43 22 48 28 43 44 43"></polygon>
                <g id="pharmacy" transform="translate(22.556349, 21.556349) rotate(-45.000000) translate(-22.556349, -21.556349) translate(6.556349, 15.556349)" fill="#FFFFFF">
                    <path d="M25.7018639,0 L6.29947644,0 C2.8347644,0 0,2.56941176 0,6 C0,9.43058824 2.8347644,12 6.29947644,12 L25.7018639,12 C29.1652356,12 32,9.42988235 32,6 C32,2.56941176 29.1652356,0 25.7018639,0 Z M25.7038743,10.5882353 L16.0837696,10.5882353 L16.0837696,1.41176471 L25.7038743,1.41176471 C28.2585131,1.41176471 30.3507435,3.46941176 30.3507435,6 C30.3507435,8.53058824 28.2591832,10.5882353 25.7038743,10.5882353 Z" id="Shape"></path>
                </g>
            </g>
        </g>
    </g>
</svg>
