<svg width="45px" height="48px" viewBox="0 0 45 48" version="1.1" xmlns="http://www.w3.org/2000/svg" xmlns:xlink="http://www.w3.org/1999/xlink">
    <!-- Generator: Sketch 48.2 (47327) - http://www.bohemiancoding.com/sketch -->
    <desc>Created with Sketch.</desc>
    <defs></defs>
    <g id="Page-1" stroke="none" stroke-width="1" fill="none" fill-rule="evenodd">
        <g id="shield" fill="#4F68FD" fill-rule="nonzero">
            <path d="M41.8,16.2 C42.1,12.8 43.1,9.6 45,6.7 L38,0 C35.8,1.8 33.2,2.8 30.4,3 C27.8,3.2 25.3,2.8 22.9,1.6 C20.5,2.7 18,3.2 15.4,3 C12.7,2.8 10.3,1.9 8.1,0.3 L1,7 C2.7,9.9 3.7,13 3.9,16.2 C4,17.7 3.6,19.7 2.6,22.3 C2.1,23.8 1.7,25 1.4,26.1 C1.2,27.1 1,28 0.9,28.6 C0.9,31.4 1.7,33.9 3.4,36.1 C4.7,37.7 6.9,39.5 9.9,41.5 C13.2,43.1 15.7,44.1 17.5,44.6 C18,44.8 18.5,45 19,45.3 L20.5,45.9 C21.7,46.6 22.5,47.3 22.9,48 C23.4,47.2 24.2,46.5 25.3,45.9 C26,45.6 26.6,45.4 27.2,45.1 C27.7,44.9 28.1,44.7 28.3,44.6 C28.7,44.5 29.2,44.3 29.8,44 C30.4,43.8 31.1,43.5 32,43.2 C33.7,42.6 35,42.1 35.8,41.6 C38.7,39.6 40.9,37.8 42.2,36.3 C43.9,34.1 44.8,31.5 44.7,28.7 C44.6,27.4 44,25.4 43,22.6 C42.1,19.8 41.7,17.7 41.8,16.2 Z" id="Shape"></path>
        </g>
        <g id="police" transform="translate(9.000000, 8.000000)" fill="#FFFFFF" fill-rule="nonzero">
            <path d="M16.3870909,13.0296048 C16.3870909,15.2756516 14.5277187,15.2756516 13.5256978,15.2756516 L12.2763384,15.2756516 L12.2763384,11.0295631 L13.8463712,11.0295631 C14.7243895,11.0295631 16.3870909,11.0295631 16.3870909,13.0296048 Z M25.9846246,10.7875581 C26.1699618,8.50217713 26.8319756,6.4048001 28,4.48209338 L23.5205731,0 C22.1052103,1.21869206 20.49451,1.89337278 18.6678052,2.0127086 C16.9951036,2.16404508 15.4070704,1.84603846 13.9163726,1.05668868 C12.3823406,1.8207046 10.8023076,2.14004458 9.15493989,2.0127086 C7.45090431,1.86003875 5.91353888,1.25602617 4.53617679,0.185337195 L0.0440830051,4.66543053 C1.14877274,6.61547116 1.76411892,8.65684702 1.88545478,10.7875581 C1.94278931,11.7689119 1.66278347,13.1196067 1.03477036,14.865643 C0.706096827,15.8336632 0.457424968,16.6736807 0.288088099,17.3750286 C0.131418162,18.0717098 0.0334161157,18.6383883 0.00074876703,19.0623971 C-0.0225850535,20.9231026 0.499425845,22.6031376 1.56944818,24.0958353 C2.40546564,25.185858 3.78416109,26.3892164 5.69886773,27.7059105 C7.79357813,28.7725994 9.41494532,29.4652805 10.5503024,29.7599533 L11.4916553,30.1972958 C11.7876615,30.3399654 12.1050015,30.4779683 12.4363417,30.6286381 C13.1503566,31.056647 13.6523671,31.5213234 13.9163726,32 C14.2403794,31.4819892 14.7530568,31.0293131 15.4344043,30.6286381 C15.9157477,30.4193004 16.3230895,30.2366299 16.649763,30.0766266 C16.9764365,29.9332903 17.2197749,29.825288 17.3611112,29.7592867 C17.6031163,29.6386175 17.9211229,29.5012813 18.3057976,29.3492781 C18.6944724,29.1966083 19.1738157,29.009271 19.7464944,28.8026001 C20.8531841,28.4099252 21.6585343,28.0399175 22.170545,27.7052439 C24.0272504,26.3885498 25.3846121,25.2051918 26.2486301,24.1458364 C27.3566532,22.6464718 27.8946645,20.9591033 27.8699973,19.0617305 C27.8046626,18.2123794 27.4453218,16.8530178 26.7926415,15.0009792 C26.1699618,13.198275 25.893956,11.7982458 25.9846246,10.7875581 Z M17.7511194,16.927686 C16.6877638,17.6237005 15.2257333,17.6237005 14.462384,17.6237005 L12.3656736,17.6237005 L12.3656736,23.3611534 L9.2129411,23.3611534 L9.2129411,8.64351341 L13.6883679,8.64351341 C15.7684113,8.64351341 17.5077809,8.7775162 18.7158062,10.2502135 C19.4698219,11.1875664 19.5971579,12.2522553 19.5971579,13.0089377 C19.5958245,14.7229734 18.8898098,16.1696702 17.7511194,16.927686 Z" id="Shape"></path>
        </g>
    </g>
</svg>
